<svg xmlns="http://www.w3.org/2000/svg" width="70.817" height="70.817" viewBox="0 0 70.817 70.817"><defs><style>.a-white{fill:#fff;}.b{fill:#72c2fb;}.c{fill:#4da760;}.d{fill:#fe6663;}.e{fill:none;}.f{fill:#3a3a3a;}</style></defs><path class="a-white" d="M99.449,108.513v3.578a3.874,3.874,0,0,0,3.874,3.874h0a3.874,3.874,0,0,0,3.874-3.874V59.533A5.533,5.533,0,0,0,101.664,54H49.357a5.533,5.533,0,0,0-5.533,5.533v48.981Z" transform="translate(-37.762 -46.531)"/><path class="b" d="M70.305,451.7v-3.576l0,0H10V451.7a3.873,3.873,0,0,0,3.873,3.873h60.3A3.873,3.873,0,0,1,70.305,451.7Z" transform="translate(-8.617 -386.143)"/><path class="c" d="M107.71,65.48H44.5V59.533A5.533,5.533,0,0,1,50.033,54h52.145a5.533,5.533,0,0,1,5.533,5.533Z" transform="translate(-38.345 -46.531)"/><g transform="translate(27.42 43.431)"><path class="b" d="M202.118,321.746h0a3.873,3.873,0,0,1-3.873-3.873h0A3.873,3.873,0,0,1,202.118,314h0a3.873,3.873,0,0,1,3.873,3.873h0A3.873,3.873,0,0,1,202.118,321.746Z" transform="translate(-198.245 -314)"/><path class="b" d="M295.451,321.746h0a3.873,3.873,0,0,1-3.873-3.873h0A3.873,3.873,0,0,1,295.451,314h0a3.873,3.873,0,0,1,3.873,3.873h0A3.873,3.873,0,0,1,295.451,321.746Z" transform="translate(-278.669 -314)"/></g><path class="d" d="M388.785,321.746h0a3.873,3.873,0,0,1-3.873-3.873h0A3.873,3.873,0,0,1,388.785,314h0a3.873,3.873,0,0,1,3.873,3.873h0A3.873,3.873,0,0,1,388.785,321.746Z" transform="translate(-331.673 -270.569)"/><g transform="translate(14.511 29.046)"><path class="b" d="M108.785,217.746h0a3.873,3.873,0,0,1-3.873-3.873h0A3.873,3.873,0,0,1,108.785,210h0a3.873,3.873,0,0,1,3.873,3.873h0A3.873,3.873,0,0,1,108.785,217.746Z" transform="translate(-104.912 -210)"/><path class="b" d="M295.451,217.746h0a3.873,3.873,0,0,1-3.873-3.873h0A3.873,3.873,0,0,1,295.451,210h0a3.873,3.873,0,0,1,3.873,3.873h0A3.873,3.873,0,0,1,295.451,217.746Z" transform="translate(-265.759 -210)"/><path class="b" d="M202.118,217.746h0a3.873,3.873,0,0,1-3.873-3.873h0A3.873,3.873,0,0,1,202.118,210h0a3.873,3.873,0,0,1,3.873,3.873h0A3.873,3.873,0,0,1,202.118,217.746Z" transform="translate(-185.336 -210)"/></g><g transform="translate(2.556 29.046)"><path class="d" d="M388.785,217.746h0a3.873,3.873,0,0,1-3.873-3.873h0A3.873,3.873,0,0,1,388.785,210h0a3.873,3.873,0,0,1,3.873,3.873h0A3.873,3.873,0,0,1,388.785,217.746Z" transform="translate(-334.229 -210)"/><circle class="e" cx="9.959" cy="9.959" r="9.959" transform="translate(0 13.002)"/></g><g transform="translate(18.857 1.383)"><path class="a-white" d="M139.1,21.964a2.766,2.766,0,0,1-2.766-2.766V12.766a2.766,2.766,0,0,1,5.533,0V19.2A2.766,2.766,0,0,1,139.1,21.964Z" transform="translate(-136.333 -10)"/><path class="a-white" d="M367.1,21.964a2.766,2.766,0,0,1-2.766-2.766V12.766a2.766,2.766,0,0,1,5.533,0V19.2A2.766,2.766,0,0,1,367.1,21.964Z" transform="translate(-332.797 -10)"/></g><path class="f" d="M63.9,6.086H57.309V4.149a4.149,4.149,0,0,0-8.3,0V6.086H25.773V4.149a4.149,4.149,0,1,0-8.3,0V6.137a1.38,1.38,0,0,0-.369-.051H11.594A6.924,6.924,0,0,0,4.678,13v23.56a1.383,1.383,0,1,0,2.766,0V20.332H57.309a1.383,1.383,0,0,0,0-2.766H7.445V13a4.154,4.154,0,0,1,4.149-4.149h5.511a1.386,1.386,0,0,0,.369-.051v1.78a4.149,4.149,0,1,0,8.3,0V8.852H49.01v1.729a4.149,4.149,0,0,0,8.3,0V8.852H63.9A4.154,4.154,0,0,1,68.051,13V65.561a2.491,2.491,0,1,1-4.981,0V61.982A1.383,1.383,0,0,0,61.687,60.6H45.6a1.383,1.383,0,1,0,0,2.766H60.3v2.195a5.225,5.225,0,0,0,.629,2.491H5.256a2.493,2.493,0,0,1-2.49-2.49v-2.2H33.725a1.383,1.383,0,0,0,0-2.766H19.9a11.342,11.342,0,1,0-14.78,0H1.383A1.383,1.383,0,0,0,0,61.982v3.579a5.262,5.262,0,0,0,5.256,5.256h60.3a5.263,5.263,0,0,0,5.257-5.257V13A6.924,6.924,0,0,0,63.9,6.086Zm-40.9,4.5a1.383,1.383,0,1,1-2.766,0V4.149a1.383,1.383,0,1,1,2.766,0Zm31.536,0a1.383,1.383,0,0,1-2.766,0V4.149a1.383,1.383,0,1,1,2.766,0ZM3.939,52.007a8.576,8.576,0,1,1,8.576,8.576A8.585,8.585,0,0,1,3.939,52.007Z"/><path class="f" d="M452.623,129.766a1.384,1.384,0,1,0-.978-.405A1.393,1.393,0,0,0,452.623,129.766Z" transform="translate(-388.827 -109.434)"/><path class="f" d="M281.985,438.534a1.386,1.386,0,1,0,.978-.4A1.4,1.4,0,0,0,281.985,438.534Z" transform="translate(-242.633 -377.53)"/><path class="f" d="M193.5,314.512a5.256,5.256,0,1,0-5.256-5.256A5.262,5.262,0,0,0,193.5,314.512Zm0-7.746a2.49,2.49,0,1,1-2.49,2.49A2.493,2.493,0,0,1,193.5,306.766Z" transform="translate(-162.208 -261.952)"/><path class="f" d="M286.834,314.512a5.256,5.256,0,1,0-5.256-5.256A5.262,5.262,0,0,0,286.834,314.512Zm0-7.746a2.49,2.49,0,1,1-2.49,2.49A2.493,2.493,0,0,1,286.834,306.766Z" transform="translate(-242.631 -261.952)"/><path class="f" d="M380.168,314.512a5.256,5.256,0,1,0-5.256-5.256A5.262,5.262,0,0,0,380.168,314.512Zm0-7.746a2.49,2.49,0,1,1-2.49,2.49A2.493,2.493,0,0,1,380.168,306.766Z" transform="translate(-323.056 -261.952)"/><path class="f" d="M105.424,205.256a5.256,5.256,0,1,0-5.256,5.256A5.262,5.262,0,0,0,105.424,205.256Zm-7.746,0a2.49,2.49,0,1,1,2.49,2.49A2.493,2.493,0,0,1,97.678,205.256Z" transform="translate(-81.784 -172.337)"/><path class="f" d="M286.834,210.512a5.256,5.256,0,1,0-5.256-5.256A5.262,5.262,0,0,0,286.834,210.512Zm0-7.746a2.49,2.49,0,1,1-2.49,2.49A2.493,2.493,0,0,1,286.834,202.766Z" transform="translate(-242.631 -172.337)"/><path class="f" d="M380.168,210.512a5.256,5.256,0,1,0-5.256-5.256A5.262,5.262,0,0,0,380.168,210.512Zm0-7.746a2.49,2.49,0,1,1-2.49,2.49A2.493,2.493,0,0,1,380.168,202.766Z" transform="translate(-323.056 -172.337)"/><path class="f" d="M193.5,210.512a5.256,5.256,0,1,0-5.256-5.256A5.262,5.262,0,0,0,193.5,210.512Zm0-7.746a2.49,2.49,0,1,1-2.49,2.49A2.493,2.493,0,0,1,193.5,202.766Z" transform="translate(-162.208 -172.337)"/><path class="f" d="M54.117,356.544a1.383,1.383,0,0,0,1.956,0l5.483-5.483a1.383,1.383,0,0,0-1.956-1.956l-4.5,4.5-1.539-1.539a1.383,1.383,0,1,0-1.956,1.956Z" transform="translate(-44.113 -300.47)"/></svg>
