<svg xmlns="http://www.w3.org/2000/svg" width="70.302" height="70.302" viewBox="0 0 70.302 70.302"><defs><style>.a{fill:#72c2fb;}</style></defs><g transform="translate(-4.7 -5.5)"><path class="a" d="M60.156,42.58H42.581V60.156H60.156ZM54.3,4.5v5.858H25.006V4.5H16.218v5.858h-4.4A7.344,7.344,0,0,0,4.5,17.682v49.8A7.344,7.344,0,0,0,11.823,74.8H67.479A7.344,7.344,0,0,0,74.8,67.479v-49.8a7.344,7.344,0,0,0-7.323-7.323H63.085V4.5ZM67.479,67.479H11.823V28.666H67.479Z" transform="translate(0.2 1)"/><path class="a" d="M31.825,14.25H14.25V31.825H31.825Z" transform="translate(5.097 29.33)"/></g></svg>