<svg xmlns="http://www.w3.org/2000/svg" width="70.5" height="71.405" viewBox="0 0 70.5 71.405"><defs><style>.a{fill:#72c2fb;}</style></defs><g transform="translate(-24.175 -301.625)"><path class="a" d="M38.215,3C18.757,3,3,18.995,3,38.7s15.757,35.7,35.215,35.7A35.5,35.5,0,0,0,73.5,38.7,35.5,35.5,0,0,0,38.215,3Zm.035,64.265A28.564,28.564,0,1,1,66.45,38.7,28.375,28.375,0,0,1,38.25,67.265Zm1.763-46.413H34.725V42.273L40.013,39.6Z" transform="translate(21.175 298.625)"/><path class="a" d="M30.228,14.25H14.25V25.631H30.228Z" transform="translate(41.67 321.772)"/></g></svg>